<svg xmlns="http://www.w3.org/2000/svg" width="864" height="392" viewBox="0 0 951933 431661" shape-rendering="geometricPrecision" text-rendering="geometricPrecision" image-rendering="optimizeQuality" fill-rule="evenodd" clip-rule="evenodd"><defs><style type="text/css"><![CDATA[
    .fil1 {fill:#4E5166;fill-rule:nonzero}
    .fil0 {fill:#7BE5A0;fill-rule:nonzero}
   ]]></style></defs><g id="_2707442227616"><path class="fil0" d="M205416 6425c2870-5738 9848-8065 15587-5196 5739 2870 8066 9848 5197 15587l-32406 64812 166104 332204c1114 1789 1757 3900 1757 6161 0 6444-5223 11668-11668 11668h-338366v-46c-1750 1-3524-394-5196-1229-5738-2870-8065-9848-5196-15587l166586-333171-32406-64812c-2870-5739-542-12717 5196-15587 5739-2869 12719-542 15588 5196l24611 49223 24612-49223zm-4774 214940c14319 60806 55587 76347 57929 121059 1617 30897-12808 53332-33680 65903h106274l-150361-300720-150359 300720h107751c-28114-16613-40638-51524-33151-85225 14346-64592 69454-60409 73783-136464 0 0 14653 28973 0 63380-11901 27941-20729 32362-28178 49198-29701 67116 119043 78731 65692 8749-22382-29359-26903-52016-15700-86600z"/><path class="fil1" d="M338911 183230v22731c0 11363-5002 15455-12955 15455-7955 0-12958-4092-12958-15455v-85922c0-11363 5003-15683 12958-15683 7953 0 12955 4320 12955 15683v17051h23639v-15459c0-25458-12728-40003-37277-40003-24548 0-37276 14545-37276 40003v82737c0 25459 12728 40004 37276 40004 24549 0 37277-14545 37277-40004v-21138h-23639zm92053-99785h-36594l-25459 159110h22960l4316-28869h30686l4320 28869h25229l-25458-159110zm-19547 28186l12046 80464h-24091l12045-80464zm91145-28186h-34776v159110h21820v-112513l18641 112513h23637l17275-114105v114105h23639v-159110h-34777l-17047 112970-18412-112970zm125243 0h-36822v159110h25002v-59778h11820c25003 0 37277-13868 37277-39325v-20685c0-25456-12274-39322-37277-39322zm0 22731c7955 0 12275 3635 12275 15001v23866c0 11365-4320 15003-12275 15003h-11820v-53870h11820zm72738 0h41142v-22731h-66145v159110h25003v-65691h32277v-22728h-32277v-47960zm53188 136379h25001v-159110h-25001v159110zm118648 0c-2501-5909-2727-11593-2727-19321v-24549c0-16591-4091-28639-16594-33866 11139-5228 16366-15911 16366-32277v-12503c0-24548-11138-36594-37050-36594h-37731v159110h25003v-64780h8636c11367 0 16366 5455 16366 20228v25005c0 12956 910 15456 2274 19547h25457zm-40687-136379c8865 0 12730 4998 12730 16366v15683c0 12728-5683 16819-15002 16819h-9774v-48868h12046zm77054 0h43187v-22731h-68189v159110h68189v-22731h-43187v-46595h34323v-22730h-34323v-44323zM376719 308921c0 45460 48870 51598 48870 84329 0 11363-5001 15455-12956 15455-7956 0-12955-4092-12955-15455v-11366h-23641v9774c0 25458 12730 40003 37279 40003 24548 0 37276-14545 37276-40003 0-45458-48869-51596-48869-84330 0-11363 4545-15683 12500-15683 7958 0 12503 4320 12503 15683v6594h23637v-5001c0-25459-12499-40004-36822-40004-24319 0-36822 14545-36822 40004zm76371-15456h26141v136379h25002v-136379h26140v-22731h-77283v22731zm108875 13863c0-11363 5002-15683 12956-15683 7955 0 12957 4320 12957 15683v85922c0 11363-5002 15683-12957 15683-7954 0-12956-4320-12956-15683v-85922zm-25001 84330c0 25458 13410 40003 37957 40003 24549 0 37959-14545 37959-40003v-82737c0-25459-13410-40004-37959-40004-24547 0-37957 14545-37957 40004v82737zm167520 38186c-2502-5908-2727-11593-2727-19321v-24549c0-16590-4091-28639-16594-33866 11138-5227 16366-15911 16366-32277v-12503c0-24548-11139-36594-37051-36594h-37730v159110h25002v-64780h8637c11366 0 16365 5455 16365 20228v25006c0 12955 911 15455 2274 19546h25458zm-40687-136379c8863 0 12729 4998 12729 16366v15683c0 12728-5683 16819-15001 16819h-9775v-48868h12047zm54325 136379h25002v-159110h-25002v159110zm65916-136379h43187v-22731h-68189v159110h68189v-22731h-43187v-46594h34322v-22731h-34322v-44323zm55458 15456c0 45460 48871 51598 48871 84329 0 11363-5002 15455-12955 15455-7958 0-12957-4092-12957-15455v-11366h-23640v9774c0 25458 12730 40003 37278 40003s37276-14545 37276-40003c0-45458-48868-51596-48868-84330 0-11363 4545-15683 12499-15683 7958 0 12503 4320 12503 15683v6594h23638v-5001c0-25459-12500-40004-36822-40004-24320 0-36823 14545-36823 40004z"/></g></svg>