<?xml version="1.0" encoding="utf-8"?>
<!-- Generator: Adobe Illustrator 20.1.0, SVG Export Plug-In . SVG Version: 6.00 Build 0)  -->
<svg version="1.1"
	 id="Layer_1" image-rendering="optimizeQuality" shape-rendering="geometricPrecision" text-rendering="geometricPrecision"
	 xmlns="http://www.w3.org/2000/svg" xmlns:xlink="http://www.w3.org/1999/xlink" x="0px" y="0px" viewBox="0 0 100 95"
	 style="enable-background:new 0 0 100 95;" xml:space="preserve">
<style type="text/css">
	.st0{fill:#5BD38B;}
</style>
<g id="_1763529294272">
	<path class="st0" d="M54.8,7.9c0.6-1.1,1.9-1.5,3.1-1c1.1,0.5,1.6,1.8,1,2.9l-6.3,12.1l32.5,62c0.2,0.3,0.3,0.7,0.3,1.2
		c0,1.2-1,2.2-2.3,2.2H16.8v0c-0.3,0-0.7-0.1-1-0.2c-1.1-0.5-1.6-1.8-1-2.9l32.6-62.2L41.1,9.8c-0.6-1.1-0.1-2.4,1-2.9
		c1.1-0.5,2.5-0.1,3.1,1l4.8,9.2L54.8,7.9z M53.9,48c2.8,11.4,10.9,14.3,11.4,22.6c0.3,5.8-2.5,10-6.6,12.3h20.8L50,26.8L20.5,82.9
		h21.1c-5.5-3.1-8-9.6-6.5-15.9C38,54.9,48.8,55.7,49.6,41.5c0,0,2.9,5.4,0,11.8c-2.3,5.2-4.1,6-5.5,9.2C38.3,75,67.4,77.2,57,64.2
		C52.6,58.7,51.7,54.4,53.9,48z"/>
</g>
</svg>
